<svg xmlns="http://www.w3.org/2000/svg">
<!-- Lucide icons v1.48.0 (https://lucide.dev), ISC License, see LICENSES/lucide.txt -->
<symbol id="arrow-up-down" viewBox="0 0 24 24" fill="none" stroke="currentColor" stroke-width="2" stroke-linecap="round" stroke-linejoin="round"><path d="m21 16-4 4-4-4" /> <path d="M17 20V4" /> <path d="m3 8 4-4 4 4" /> <path d="M7 4v16" /></symbol>
<symbol id="book-open" viewBox="0 0 24 24" fill="none" stroke="currentColor" stroke-width="2" stroke-linecap="round" stroke-linejoin="round"><path d="M12 5v16" /> <path d="M20.001 19A2 2 0 0022 17V5a2 2 0 00-1.999-2L16 3.002A5 5 0 0012 5a5 5 0 00-4-2H4a2 2 0 00-2 2v12a2 2 0 001.999 2H8a5 5 0 014 2 5 5 0 014-2z" /></symbol>
<symbol id="chevron-left" viewBox="0 0 24 24" fill="none" stroke="currentColor" stroke-width="2" stroke-linecap="round" stroke-linejoin="round"><path d="m15 18-6-6 6-6" /></symbol>
<symbol id="chevron-right" viewBox="0 0 24 24" fill="none" stroke="currentColor" stroke-width="2" stroke-linecap="round" stroke-linejoin="round"><path d="m9 18 6-6-6-6" /></symbol>
<symbol id="code-xml" viewBox="0 0 24 24" fill="none" stroke="currentColor" stroke-width="2" stroke-linecap="round" stroke-linejoin="round"><path d="m18 16 4-4-4-4" /> <path d="m6 8-4 4 4 4" /> <path d="m14.5 4-5 16" /></symbol>
<symbol id="download" viewBox="0 0 24 24" fill="none" stroke="currentColor" stroke-width="2" stroke-linecap="round" stroke-linejoin="round"><path d="M12 15V3" /> <path d="M21 15v4a2 2 0 0 1-2 2H5a2 2 0 0 1-2-2v-4" /> <path d="m7 10 5 5 5-5" /></symbol>
<symbol id="external-link" viewBox="0 0 24 24" fill="none" stroke="currentColor" stroke-width="2" stroke-linecap="round" stroke-linejoin="round"><path d="M15 3h6v6" /> <path d="M10 14 21 3" /> <path d="M18 13v6a2 2 0 0 1-2 2H5a2 2 0 0 1-2-2V8a2 2 0 0 1 2-2h6" /></symbol>
<symbol id="eye" viewBox="0 0 24 24" fill="none" stroke="currentColor" stroke-width="2" stroke-linecap="round" stroke-linejoin="round"><path d="M2.062 12.348a1 1 0 0 1 0-.696 10.75 10.75 0 0 1 19.876 0 1 1 0 0 1 0 .696 10.75 10.75 0 0 1-19.876 0" /> <circle cx="12" cy="12" r="3" /></symbol>
<symbol id="file-code" viewBox="0 0 24 24" fill="none" stroke="currentColor" stroke-width="2" stroke-linecap="round" stroke-linejoin="round"><path d="M6 22a2 2 0 0 1-2-2V4a2 2 0 0 1 2-2h8a2.4 2.4 0 0 1 1.704.706l3.588 3.588A2.4 2.4 0 0 1 20 8v12a2 2 0 0 1-2 2z" /> <path d="M14 2v5a1 1 0 0 0 1 1h5" /> <path d="M10 12.5 8 15l2 2.5" /> <path d="m14 12.5 2 2.5-2 2.5" /></symbol>
<symbol id="file-text" viewBox="0 0 24 24" fill="none" stroke="currentColor" stroke-width="2" stroke-linecap="round" stroke-linejoin="round"><path d="M6 22a2 2 0 0 1-2-2V4a2 2 0 0 1 2-2h8a2.4 2.4 0 0 1 1.704.706l3.588 3.588A2.4 2.4 0 0 1 20 8v12a2 2 0 0 1-2 2z" /> <path d="M14 2v5a1 1 0 0 0 1 1h5" /> <path d="M10 9H8" /> <path d="M16 13H8" /> <path d="M16 17H8" /></symbol>
<symbol id="file-type" viewBox="0 0 24 24" fill="none" stroke="currentColor" stroke-width="2" stroke-linecap="round" stroke-linejoin="round"><path d="M6 22a2 2 0 0 1-2-2V4a2 2 0 0 1 2-2h8a2.4 2.4 0 0 1 1.704.706l3.588 3.588A2.4 2.4 0 0 1 20 8v12a2 2 0 0 1-2 2z" /> <path d="M14 2v5a1 1 0 0 0 1 1h5" /> <path d="M11 18h2" /> <path d="M12 12v6" /> <path d="M9 13v-.5a.5.5 0 0 1 .5-.5h5a.5.5 0 0 1 .5.5v.5" /></symbol>
<symbol id="file" viewBox="0 0 24 24" fill="none" stroke="currentColor" stroke-width="2" stroke-linecap="round" stroke-linejoin="round"><path d="M6 22a2 2 0 0 1-2-2V4a2 2 0 0 1 2-2h8a2.4 2.4 0 0 1 1.704.706l3.588 3.588A2.4 2.4 0 0 1 20 8v12a2 2 0 0 1-2 2z" /> <path d="M14 2v5a1 1 0 0 0 1 1h5" /></symbol>
<symbol id="film" viewBox="0 0 24 24" fill="none" stroke="currentColor" stroke-width="2" stroke-linecap="round" stroke-linejoin="round"><rect width="18" height="18" x="3" y="3" rx="2" /> <path d="M7 3v18" /> <path d="M3 7.5h4" /> <path d="M3 12h18" /> <path d="M3 16.5h4" /> <path d="M17 3v18" /> <path d="M17 7.5h4" /> <path d="M17 16.5h4" /></symbol>
<symbol id="folder-open" viewBox="0 0 24 24" fill="none" stroke="currentColor" stroke-width="2" stroke-linecap="round" stroke-linejoin="round"><path d="m6 14 1.5-2.9A2 2 0 0 1 9.24 10H20a2 2 0 0 1 1.94 2.5l-1.54 6a2 2 0 0 1-1.95 1.5H4a2 2 0 0 1-2-2V5a2 2 0 0 1 2-2h3.9a2 2 0 0 1 1.69.9l.81 1.2a2 2 0 0 0 1.67.9H18a2 2 0 0 1 2 2v2" /></symbol>
<symbol id="folder" viewBox="0 0 24 24" fill="none" stroke="currentColor" stroke-width="2" stroke-linecap="round" stroke-linejoin="round"><path d="M20 20a2 2 0 0 0 2-2V8a2 2 0 0 0-2-2h-7.9a2 2 0 0 1-1.69-.9L9.6 3.9A2 2 0 0 0 7.93 3H4a2 2 0 0 0-2 2v13a2 2 0 0 0 2 2Z" /></symbol>
<symbol id="image" viewBox="0 0 24 24" fill="none" stroke="currentColor" stroke-width="2" stroke-linecap="round" stroke-linejoin="round"><rect width="18" height="18" x="3" y="3" rx="2" ry="2" /> <circle cx="9" cy="9" r="2" /> <path d="m21 15-3.086-3.086a2 2 0 0 0-2.828 0L6 21" /></symbol>
<symbol id="layout-grid" viewBox="0 0 24 24" fill="none" stroke="currentColor" stroke-width="2" stroke-linecap="round" stroke-linejoin="round"><rect width="7" height="7" x="3" y="3" rx="1" /> <rect width="7" height="7" x="14" y="3" rx="1" /> <rect width="7" height="7" x="14" y="14" rx="1" /> <rect width="7" height="7" x="3" y="14" rx="1" /></symbol>
<symbol id="list" viewBox="0 0 24 24" fill="none" stroke="currentColor" stroke-width="2" stroke-linecap="round" stroke-linejoin="round"><path d="M3 5h.01" /> <path d="M3 12h.01" /> <path d="M3 19h.01" /> <path d="M8 5h13" /> <path d="M8 12h13" /> <path d="M8 19h13" /></symbol>
<symbol id="lock-keyhole" viewBox="0 0 24 24" fill="none" stroke="currentColor" stroke-width="2" stroke-linecap="round" stroke-linejoin="round"><circle cx="12" cy="16" r="1" /> <rect x="3" y="10" width="18" height="12" rx="2" /> <path d="M7 10V7a5 5 0 0 1 10 0v3" /></symbol>
<symbol id="log-out" viewBox="0 0 24 24" fill="none" stroke="currentColor" stroke-width="2" stroke-linecap="round" stroke-linejoin="round"><path d="m16 17 5-5-5-5" /> <path d="M21 12H9" /> <path d="M9 21H5a2 2 0 0 1-2-2V5a2 2 0 0 1 2-2h4" /></symbol>
<symbol id="music" viewBox="0 0 24 24" fill="none" stroke="currentColor" stroke-width="2" stroke-linecap="round" stroke-linejoin="round"><path d="M9 18V5l12-2v13" /> <circle cx="6" cy="18" r="3" /> <circle cx="18" cy="16" r="3" /></symbol>
<symbol id="search" viewBox="0 0 24 24" fill="none" stroke="currentColor" stroke-width="2" stroke-linecap="round" stroke-linejoin="round"><path d="m21 21-4.34-4.34" /> <circle cx="11" cy="11" r="8" /></symbol>
<symbol id="x" viewBox="0 0 24 24" fill="none" stroke="currentColor" stroke-width="2" stroke-linecap="round" stroke-linejoin="round"><path d="M18 6 6 18" /> <path d="m6 6 12 12" /></symbol>
</svg>
